<?xml version="1.0" encoding="UTF-8" standalone="no"?>
<svg
   xmlns:dc="http://purl.org/dc/elements/1.1/"
   xmlns:cc="http://creativecommons.org/ns#"
   xmlns:rdf="http://www.w3.org/1999/02/22-rdf-syntax-ns#"
   xmlns:svg="http://www.w3.org/2000/svg"
   xmlns="http://www.w3.org/2000/svg"
   xmlns:xlink="http://www.w3.org/1999/xlink"
   xmlns:sodipodi="http://sodipodi.sourceforge.net/DTD/sodipodi-0.dtd"
   xmlns:inkscape="http://www.inkscape.org/namespaces/inkscape"
   version="1.1"
   id="svg833"
   width="271.57224"
   height="257.5563"
   viewBox="0 0 271.57224 257.5563"
   sodipodi:docname="Drag-Up-icon.svg"
   inkscape:version="1.0.1 (3bc2e813f5, 2020-09-07)">
  <metadata
     id="metadata839">
    <rdf:RDF>
      <cc:Work
         rdf:about="">
        <dc:format>image/svg+xml</dc:format>
        <dc:type
           rdf:resource="http://purl.org/dc/dcmitype/StillImage" />
        <dc:title></dc:title>
      </cc:Work>
    </rdf:RDF>
  </metadata>
  <defs
     id="defs837">
    <linearGradient
       inkscape:collect="always"
       id="linearGradient2411">
      <stop
         style="stop-color:#000000;stop-opacity:0.40000001"
         offset="0"
         id="stop2407" />
      <stop
         style="stop-color:#000000;stop-opacity:0.1"
         offset="0.65044606"
         id="stop2422" />
      <stop
         style="stop-color:#ffffff;stop-opacity:0"
         offset="1"
         id="stop2409" />
    </linearGradient>
    <radialGradient
       inkscape:collect="always"
       xlink:href="#linearGradient2411"
       id="radialGradient2424"
       gradientUnits="userSpaceOnUse"
       gradientTransform="matrix(2.8795723,0,0,2.7284235,-125.13659,-119.73125)"
       cx="65.566055"
       cy="67.347748"
       fx="65.566055"
       fy="67.347748"
       r="47.176914" />
  </defs>
  <sodipodi:namedview
     pagecolor="#ffffff"
     bordercolor="#666666"
     borderopacity="1"
     objecttolerance="10"
     gridtolerance="10"
     guidetolerance="10"
     inkscape:pageopacity="0"
     inkscape:pageshadow="2"
     inkscape:window-width="1931"
     inkscape:window-height="1158"
     id="namedview835"
     showgrid="false"
     inkscape:zoom="2.9765625"
     inkscape:cx="103.41713"
     inkscape:cy="109.17124"
     inkscape:window-x="1017"
     inkscape:window-y="914"
     inkscape:window-maximized="0"
     inkscape:current-layer="layer1"
     lock-margins="false"
     fit-margin-top="0"
     fit-margin-left="0"
     fit-margin-right="0"
     fit-margin-bottom="0" />
  <g
     inkscape:groupmode="layer"
     id="layer1"
     inkscape:label="background"
     transform="translate(72.120531,64.756219)">
    <ellipse
       style="fill:url(#radialGradient2424);fill-opacity:1;stroke:none;stroke-width:2.05025"
       id="path2387"
       cx="63.665581"
       cy="64.021935"
       rx="134.76099"
       ry="127.75303" />
  </g>
  <g
     inkscape:groupmode="layer"
     inkscape:label="Image"
     id="g841"
     transform="translate(72.120531,64.756219)">
    <path
       style="fill:#ffffff"
       d="M 45.822479,108.72372 C 38.239918,105.21311 33.817939,98.703706 20.471759,71.406084 14.40244,58.992195 11.322479,51.547988 11.322479,49.292448 c 0,-6.372355 8.477335,-11.555126 14.144703,-8.647618 1.295413,0.664581 4.267797,3.049466 6.605297,5.299745 l 4.25,4.091416 V 27.232075 c 0,-19.4807693 0.242675,-23.2147323 1.665271,-25.6229963 3.417864,-5.785982 11.654948,-6.823131 16.411652,-2.06642697 L 57.322479,2.4657287 V 15.895859 29.32599 l 4.954104,-0.476027 c 4.498348,-0.432234 5.235425,-0.194705 8.01209,2.58196 2.586253,2.586253 3.593498,2.971086 6.529378,2.494657 4.26607,-0.692287 8.89136,1.108386 10.96115,4.267292 1.34098,2.046585 1.92032,2.23285 4.22248,1.357573 3.824871,-1.454215 7.879263,-0.245318 10.793769,3.218373 2.51537,2.989353 2.52703,3.093966 2.52624,22.676482 -7.8e-4,19.564396 -0.0166,19.706486 -2.85374,25.673276 -3.147106,6.61863 -10.395199,14.056274 -16.963599,17.407214 -3.65688,1.86561 -5.81627,2.09041 -19.892034,2.07083 -13.231041,-0.0184 -16.438052,-0.32208 -19.789838,-1.8739 z m 40.808802,-7.18529 c 5.6735,-3.757974 10.218341,-9.327164 12.203693,-14.954254 1.924596,-5.454894 2.160426,-38.891685 0.28751,-40.764601 -2.931302,-2.931302 -8.429933,-0.696123 -10.144983,4.123907 -0.37186,1.045089 -1.39752,1.681756 -2.402,1.491005 -1.32301,-0.251241 -1.82792,-1.499101 -2.05835,-5.087107 -0.23873,-3.717188 -0.8279,-5.096606 -2.70104,-6.323934 -3.30832,-2.167695 -6.37195,-0.939346 -8.1257,3.257962 -2.221447,5.316679 -4.73237,4.164114 -5.401061,-2.479199 -0.576277,-5.725204 -1.977276,-7.355086 -5.966871,-6.941684 -1.718461,0.178067 -2.968924,1.277918 -4,3.518222 -1.05894,2.300844 -2.088081,3.182965 -3.5,3 -1.896693,-0.245785 -2.025827,-1.20384 -2.5,-18.547737 C 51.789898,2.3507237 51.597882,1.6695767 46.629183,1.6348877 c -4.893575,-0.03416 -5.306704,2.358844 -5.306704,30.7385783 0,22.832728 -0.204661,26.387414 -1.548954,26.903268 -1.035971,0.397539 -4.144153,-1.931117 -9.385163,-7.031385 -4.309915,-4.194176 -8.237758,-7.625774 -8.72854,-7.625774 -1.719928,0 -5.337343,3.128065 -5.337343,4.615327 0,2.130974 18.542231,39.852014 22.281986,45.328944 1.710907,2.50565 4.419967,5.793234 6.020133,7.305734 l 2.909392,2.75 h 17.2228 17.222801 z M 21.023715,15.987478 C 20.638035,15.601798 20.322479,10.5578 20.322479,4.7785937 v -10.507647 l -2.449119,2.300828 c -2.484394,2.333967 -5.561736,2.239058 -5.538555,-0.170815 0.01123,-1.167651 9.585448,-11.7813847 10.627506,-11.7813847 1.45592,0 10.360168,9.5987497 10.360168,11.1682267 0,2.937518 -2.814686,3.35449503 -5.515617,0.817101 l -2.413855,-2.267699 -0.285264,10.87933 C 24.87497,14.09399 24.537495,16.150409 23.273715,16.392289 c -0.85182,0.163034 -1.86432,-0.01913 -2.25,-0.404811 z"
       id="path2383" />
  </g>
</svg>
